<svg width="1080" height="1080" viewBox="0 0 1080 1080" fill="none" xmlns="http://www.w3.org/2000/svg">
<path fill-rule="evenodd" clip-rule="evenodd" d="M511.173 125.04C511.173 125.04 301.937 226.497 627.451 606.716C606.702 627.544 586.761 640.023 569.559 640.023C488.655 640.023 347.05 364.072 347.05 241.187C347.05 118.299 446.67 18.6787 569.559 18.6787C692.443 18.6787 792.064 118.299 792.064 241.187C792.064 269.818 784.371 306.765 771.557 346.589C783.766 265.752 670.398 109.33 567.694 109.33C547.01 109.329 527.668 115.068 511.173 125.04Z" fill="#006C34"/>
<path fill-rule="evenodd" clip-rule="evenodd" d="M458.285 218.735C458.285 279.16 507.268 328.143 567.693 328.143C626.6 328.143 674.627 281.584 676.996 223.259C748.177 299.36 746.191 413.558 746.185 414.001C713.835 489.653 669.038 564.963 627.45 606.716C301.937 226.494 511.173 125.04 511.173 125.04C479.479 144.202 458.285 178.994 458.285 218.735Z" fill="#333836"/>
<path fill-rule="evenodd" clip-rule="evenodd" d="M555.98 327.525C522.343 434.083 627.451 606.714 627.451 606.714C301.936 226.494 511.173 125.04 511.173 125.04C479.479 144.203 458.285 178.996 458.285 218.736C458.285 275.204 501.066 321.679 555.98 327.525Z" fill="#1A1A1A"/>
<path fill-rule="evenodd" clip-rule="evenodd" d="M585.877 571.757C302.357 220.233 498.669 125.04 498.669 125.04C515.164 115.069 534.507 109.33 555.19 109.33C557.227 109.33 559.267 109.391 561.316 109.514C543.037 110.566 525.959 116.101 511.173 125.042C511.173 125.042 301.936 226.499 627.451 606.717C625.908 608.268 624.367 609.773 622.829 611.23C609.547 599.276 596.042 584.014 585.877 571.757Z" fill="#009145"/>
<path fill-rule="evenodd" clip-rule="evenodd" d="M602.379 68.6915C479.489 68.6915 379.87 168.312 379.87 291.201C379.87 359.857 424.072 476.285 477.19 565.68C410.798 475.002 347.05 323.638 347.05 241.187C347.05 118.299 446.67 18.6787 569.559 18.6787C658.133 18.6787 734.624 70.4355 770.425 145.357C729.634 98.3903 669.477 68.6928 602.379 68.6915Z" fill="#009145"/>
<path fill-rule="evenodd" clip-rule="evenodd" d="M478.676 217.745C478.676 266.895 518.517 306.735 567.665 306.735C616.807 306.735 656.652 266.893 656.652 217.745C656.652 168.6 616.807 128.758 567.665 128.758C518.517 128.758 478.676 168.599 478.676 217.745Z" fill="#54BBE7"/>
<path d="M70.7922 1026.19C70.7922 1049.61 59.0861 1061.32 35.6633 1061.32H0V791.989C3.72522 707.886 47.3734 666.37 132.005 666.37C219.299 666.37 262.949 713.743 262.949 808.488C262.949 904.298 225.691 953.8 150.634 956.461C115.505 956.461 88.8917 942.09 70.7922 912.815V1026.19ZM130.941 893.12C169.263 893.12 188.959 865.973 190.558 811.681C190.558 754.727 170.329 726.517 129.874 726.517C89.4222 726.517 70.2591 754.727 70.7909 811.681C72.922 865.973 92.6196 893.12 130.941 893.12Z" fill="#333836"/>
<path d="M549.853 811.682C549.853 908.56 506.742 957.53 421.573 957.53C336.405 957.53 293.824 908.561 293.824 811.682C293.824 713.744 336.405 665.305 421.573 665.305C506.742 665.305 549.853 713.744 549.853 811.682ZM365.683 811.682C366.214 866.508 384.848 894.188 421.041 894.188C457.239 894.188 475.335 865.443 475.866 809.553C475.866 754.727 457.769 727.579 421.574 727.579C384.314 727.579 365.683 755.794 365.683 811.682Z" fill="#333836"/>
<path d="M620.645 669.562C643.536 669.562 654.715 680.74 654.715 703.627V951.141H583.919V669.562H620.645Z" fill="#006C34"/>
<path d="M898.495 951.142C875.075 949.544 863.364 938.364 863.364 916.009V771.23C861.767 741.955 845.801 727.579 814.396 727.579C782.991 727.579 767.021 741.955 766.49 771.23V951.14H694.63V785.599C694.63 705.226 735.082 665.305 815.458 665.305C895.836 665.305 935.225 705.226 934.693 785.599V951.142H898.495Z" fill="#333836"/>
<path d="M1044.87 720.128H1037.42V876.088C1037.42 887.798 1044.34 894.186 1058.18 894.186H1080V947.945C1057.11 950.076 1032.09 950.076 1005.48 947.413C978.864 944.753 966.087 928.254 966.621 896.848V589.188H1003.35C1021.98 589.188 1037.42 606.221 1037.42 624.852V669.563H1080V684.999C1080 705.226 1064.56 720.128 1044.87 720.128Z" fill="#333836"/>
</svg>
