<svg width="1080" height="1080" viewBox="0 0 1080 1080" fill="none" xmlns="http://www.w3.org/2000/svg">
<path fill-rule="evenodd" clip-rule="evenodd" d="M511.173 125.041C511.173 125.041 301.937 226.498 627.452 606.717C606.702 627.545 586.761 640.024 569.559 640.024C488.655 640.024 347.05 364.072 347.05 241.188C347.05 118.301 446.67 18.6797 569.559 18.6797C692.443 18.6797 792.064 118.301 792.064 241.188C792.064 269.82 784.371 306.768 771.557 346.59C783.766 265.754 670.398 109.332 567.694 109.332C547.01 109.331 527.668 115.069 511.173 125.041Z" fill="#006C34"/>
<path fill-rule="evenodd" clip-rule="evenodd" d="M458.285 218.736C458.285 279.161 507.268 328.144 567.693 328.144C626.6 328.144 674.627 281.585 676.996 223.259C748.177 299.36 746.191 413.558 746.185 414.001C713.835 489.652 669.038 564.962 627.45 606.717C301.937 226.494 511.173 125.041 511.173 125.041C479.479 144.203 458.285 178.995 458.285 218.736Z" fill="#333836"/>
<path fill-rule="evenodd" clip-rule="evenodd" d="M555.98 327.526C522.343 434.084 627.451 606.715 627.451 606.715C301.936 226.494 511.173 125.041 511.173 125.041C479.479 144.203 458.285 178.997 458.285 218.737C458.285 275.205 501.066 321.68 555.98 327.526Z" fill="#1A1A1A"/>
<path fill-rule="evenodd" clip-rule="evenodd" d="M585.877 571.758C302.357 220.235 498.669 125.041 498.669 125.041C515.164 115.07 534.507 109.331 555.19 109.331C557.227 109.331 559.267 109.392 561.316 109.515C543.037 110.567 525.959 116.102 511.173 125.041C511.173 125.041 301.936 226.498 627.451 606.717C625.908 608.268 624.367 609.772 622.829 611.229C609.547 599.277 596.042 584.015 585.877 571.758Z" fill="#009145"/>
<path fill-rule="evenodd" clip-rule="evenodd" d="M602.379 68.6928C479.489 68.6928 379.87 168.314 379.87 291.202C379.87 359.858 424.072 476.286 477.19 565.681C410.798 475.004 347.05 323.64 347.05 241.187C347.05 118.3 446.67 18.6787 569.559 18.6787C658.133 18.6787 734.624 70.4355 770.425 145.357C729.634 98.3916 669.477 68.6928 602.379 68.6928Z" fill="#009145"/>
<path fill-rule="evenodd" clip-rule="evenodd" d="M478.676 217.746C478.676 266.894 518.517 306.736 567.665 306.736C616.807 306.736 656.652 266.894 656.652 217.746C656.652 168.601 616.807 128.759 567.665 128.759C518.517 128.759 478.676 168.6 478.676 217.746Z" fill="#54BBE7"/>
<path d="M70.7922 1026.19C70.7922 1049.61 59.0861 1061.32 35.6633 1061.32H0V791.991C3.72522 707.888 47.3734 666.372 132.005 666.372C219.299 666.372 262.949 713.745 262.949 808.49C262.949 904.3 225.691 953.802 150.634 956.463C115.505 956.463 88.8917 942.092 70.7922 912.817V1026.19ZM130.941 893.122C169.263 893.122 188.959 865.975 190.558 811.683C190.558 754.729 170.329 726.519 129.874 726.519C89.4222 726.519 70.2591 754.729 70.7909 811.683C72.922 865.975 92.6196 893.122 130.941 893.122Z" fill="white"/>
<path d="M549.853 811.684C549.853 908.562 506.742 957.532 421.573 957.532C336.405 957.532 293.824 908.563 293.824 811.684C293.824 713.746 336.405 665.307 421.573 665.307C506.742 665.307 549.853 713.746 549.853 811.684ZM365.683 811.684C366.214 866.51 384.848 894.19 421.041 894.19C457.239 894.19 475.335 865.445 475.866 809.555C475.866 754.729 457.769 727.581 421.574 727.581C384.314 727.581 365.683 755.796 365.683 811.684Z" fill="white"/>
<path d="M620.645 669.564C643.536 669.564 654.715 680.741 654.715 703.628V951.143H583.919V669.564H620.645Z" fill="#006C34"/>
<path d="M898.495 951.144C875.075 949.546 863.364 938.366 863.364 916.011V771.232C861.767 741.956 845.801 727.581 814.396 727.581C782.991 727.581 767.021 741.956 766.49 771.232V951.142H694.63V785.601C694.63 705.228 735.082 665.307 815.458 665.307C895.836 665.307 935.225 705.228 934.693 785.601V951.144H898.495Z" fill="white"/>
<path d="M1044.87 720.13H1037.42V876.09C1037.42 887.8 1044.34 894.188 1058.18 894.188H1080V947.947C1057.11 950.078 1032.09 950.078 1005.48 947.415C978.864 944.755 966.087 928.256 966.621 896.85V589.189H1003.35C1021.98 589.189 1037.42 606.223 1037.42 624.854V669.565H1080V685.001C1080 705.228 1064.56 720.13 1044.87 720.13Z" fill="white"/>
</svg>
