<svg width="1269" height="477" viewBox="0 0 1269 477" fill="none" xmlns="http://www.w3.org/2000/svg">
<path fill-rule="evenodd" clip-rule="evenodd" d="M126.419 81.7524C126.419 81.7524 -34.108 159.59 215.628 451.295C199.709 467.274 184.41 476.848 171.213 476.848C109.143 476.848 0.50293 265.138 0.50293 170.86C0.50293 76.5804 76.9319 0.151367 171.213 0.151367C265.49 0.151367 341.919 76.5804 341.919 170.86C341.919 192.826 336.017 221.172 326.186 251.725C335.553 189.706 248.577 69.6994 169.782 69.6994C153.913 69.6984 139.074 74.1014 126.419 81.7524Z" fill="#006C34"/>
<path fill-rule="evenodd" clip-rule="evenodd" d="M85.8429 153.635C85.8429 199.993 123.423 237.573 169.781 237.573C214.975 237.573 251.821 201.853 253.639 157.106C308.249 215.491 306.725 303.104 306.721 303.444C281.902 361.484 247.533 419.262 215.627 451.295C-34.1081 159.588 126.419 81.752 126.419 81.752C102.103 96.453 85.8429 123.146 85.8429 153.635Z" fill="#333836"/>
<path fill-rule="evenodd" clip-rule="evenodd" d="M160.795 237.099C134.989 318.851 215.628 451.294 215.628 451.294C-34.1083 159.588 126.419 81.752 126.419 81.752C102.103 96.454 85.8427 123.147 85.8427 153.636C85.8427 196.958 118.665 232.614 160.795 237.099Z" fill="#1A1A1A"/>
<path fill-rule="evenodd" clip-rule="evenodd" d="M183.732 424.474C-33.7853 154.784 116.826 81.7522 116.826 81.7522C129.481 74.1022 144.321 69.6992 160.189 69.6992C161.752 69.6992 163.317 69.7462 164.889 69.8402C150.865 70.6472 137.763 74.8942 126.419 81.7532C126.419 81.7532 -34.1083 159.591 215.628 451.296C214.444 452.486 213.262 453.64 212.082 454.758C201.892 445.587 191.531 433.878 183.732 424.474Z" fill="#009145"/>
<path fill-rule="evenodd" clip-rule="evenodd" d="M196.392 38.5214C102.111 38.5214 25.683 114.95 25.683 209.231C25.683 261.904 59.5949 351.228 100.347 419.812C49.4109 350.244 0.50293 234.117 0.50293 170.86C0.50293 76.5804 76.9319 0.151367 171.213 0.151367C239.167 0.151367 297.851 39.8594 325.318 97.3394C294.023 61.3064 247.87 38.5224 196.392 38.5214Z" fill="#009145"/>
<path fill-rule="evenodd" clip-rule="evenodd" d="M101.486 152.876C101.486 190.584 132.052 221.149 169.759 221.149C207.461 221.149 238.03 190.583 238.03 152.876C238.03 115.172 207.461 84.6045 169.759 84.6045C132.052 84.6045 101.486 115.171 101.486 152.876Z" fill="#54BBE7"/>
<path d="M494.231 392.661C494.231 410.628 485.25 419.61 467.28 419.61H439.919V212.979C442.777 148.455 476.264 116.604 541.194 116.604C608.166 116.604 641.654 152.948 641.654 225.636C641.654 299.142 613.07 337.12 555.486 339.162C528.535 339.162 508.117 328.137 494.231 305.677V392.661ZM540.377 290.567C569.778 290.567 584.889 269.739 586.116 228.086C586.116 184.391 570.596 162.748 539.559 162.748C508.524 162.748 493.822 184.391 494.23 228.086C495.865 269.739 510.977 290.567 540.377 290.567Z" fill="#333836"/>
<path d="M861.768 228.087C861.768 302.412 828.693 339.982 763.351 339.982C698.01 339.982 665.342 302.413 665.342 228.087C665.342 152.949 698.01 115.786 763.351 115.786C828.693 115.786 861.768 152.949 861.768 228.087ZM720.472 228.087C720.88 270.15 735.176 291.386 762.943 291.386C790.714 291.386 804.598 269.333 805.005 226.454C805.005 184.391 791.121 163.563 763.352 163.563C734.766 163.563 720.472 185.21 720.472 228.087Z" fill="#333836"/>
<path d="M916.079 119.053C933.641 119.053 942.218 127.628 942.218 145.187V335.081H887.903V119.053H916.079Z" fill="#006C34"/>
<path d="M1129.25 335.081C1111.28 333.855 1102.29 325.278 1102.29 308.127V197.052C1101.07 174.592 1088.82 163.563 1064.73 163.563C1040.63 163.563 1028.38 174.592 1027.97 197.052V335.08H972.841V208.076C972.841 146.414 1003.88 115.786 1065.54 115.786C1127.21 115.786 1157.43 146.414 1157.02 208.076V335.081H1129.25Z" fill="#333836"/>
<path d="M1241.55 157.847H1235.83V277.5C1235.83 286.484 1241.14 291.385 1251.76 291.385H1268.5V332.629C1250.94 334.264 1231.74 334.264 1211.33 332.221C1190.91 330.18 1181.1 317.522 1181.51 293.427V57.3887H1209.69C1223.99 57.3887 1235.83 70.4567 1235.83 84.7507V119.053H1268.5V130.896C1268.5 146.414 1256.66 157.847 1241.55 157.847Z" fill="#333836"/>
</svg>
