<svg width="1269" height="478" viewBox="0 0 1269 478" fill="none" xmlns="http://www.w3.org/2000/svg">
<path fill-rule="evenodd" clip-rule="evenodd" d="M126.419 82.101C126.419 82.101 -34.108 159.939 215.628 451.644C199.709 467.623 184.41 477.197 171.213 477.197C109.143 477.197 0.50293 265.487 0.50293 171.209C0.50293 76.929 76.9319 0.5 171.213 0.5C265.49 0.5 341.919 76.929 341.919 171.209C341.919 193.175 336.017 221.521 326.186 252.074C335.553 190.055 248.577 70.048 169.782 70.048C153.913 70.047 139.074 74.45 126.419 82.101Z" fill="#006C34"/>
<path fill-rule="evenodd" clip-rule="evenodd" d="M85.8429 153.984C85.8429 200.342 123.423 237.922 169.781 237.922C214.975 237.922 251.821 202.202 253.639 157.455C308.249 215.84 306.725 303.453 306.721 303.793C281.902 361.833 247.533 419.611 215.627 451.644C-34.1081 159.937 126.419 82.1006 126.419 82.1006C102.103 96.8016 85.8429 123.495 85.8429 153.984Z" fill="#333836"/>
<path fill-rule="evenodd" clip-rule="evenodd" d="M160.795 237.448C134.989 319.2 215.628 451.643 215.628 451.643C-34.1083 159.937 126.419 82.1006 126.419 82.1006C102.103 96.8026 85.8427 123.496 85.8427 153.985C85.8427 197.307 118.665 232.963 160.795 237.448Z" fill="#1A1A1A"/>
<path fill-rule="evenodd" clip-rule="evenodd" d="M183.732 424.823C-33.7853 155.133 116.826 82.1009 116.826 82.1009C129.481 74.4509 144.321 70.0479 160.189 70.0479C161.752 70.0479 163.317 70.0949 164.889 70.1889C150.865 70.9959 137.763 75.2429 126.419 82.1019C126.419 82.1019 -34.1083 159.94 215.628 451.645C214.444 452.835 213.262 453.989 212.082 455.107C201.892 445.936 191.531 434.227 183.732 424.823Z" fill="#009145"/>
<path fill-rule="evenodd" clip-rule="evenodd" d="M196.392 38.87C102.111 38.87 25.683 115.299 25.683 209.58C25.683 262.253 59.5949 351.577 100.347 420.161C49.4109 350.593 0.50293 234.466 0.50293 171.209C0.50293 76.929 76.9319 0.5 171.213 0.5C239.167 0.5 297.851 40.208 325.318 97.688C294.023 61.655 247.87 38.871 196.392 38.87Z" fill="#009145"/>
<path fill-rule="evenodd" clip-rule="evenodd" d="M101.486 153.224C101.486 190.932 132.052 221.498 169.759 221.498C207.461 221.498 238.03 190.931 238.03 153.224C238.03 115.52 207.461 84.9531 169.759 84.9531C132.052 84.9531 101.486 115.519 101.486 153.224Z" fill="#54BBE7"/>
<path d="M494.231 393.009C494.231 410.976 485.25 419.959 467.28 419.959H439.919V213.327C442.777 148.803 476.264 116.952 541.194 116.952C608.166 116.952 641.654 153.297 641.654 225.985C641.654 299.491 613.07 337.469 555.486 339.511C528.535 339.511 508.117 328.485 494.231 306.025V393.009ZM540.377 290.915C569.778 290.915 584.889 270.088 586.116 228.435C586.116 184.74 570.596 163.097 539.559 163.097C508.524 163.097 493.822 184.74 494.23 228.435C495.865 270.088 510.977 290.915 540.377 290.915Z" fill="white"/>
<path d="M861.768 228.436C861.768 302.761 828.693 340.331 763.351 340.331C698.01 340.331 665.342 302.762 665.342 228.436C665.342 153.298 698.01 116.135 763.351 116.135C828.693 116.135 861.768 153.298 861.768 228.436ZM720.472 228.436C720.88 270.499 735.176 291.735 762.943 291.735C790.714 291.735 804.598 269.682 805.005 226.803C805.005 184.74 791.121 163.912 763.352 163.912C734.766 163.912 720.472 185.559 720.472 228.436Z" fill="white"/>
<path d="M916.079 119.401C933.641 119.401 942.218 127.976 942.218 145.535V335.429H887.903V119.401H916.079Z" fill="#006C34"/>
<path d="M1129.25 335.43C1111.28 334.204 1102.29 325.627 1102.29 308.476V197.401C1101.07 174.941 1088.82 163.912 1064.73 163.912C1040.63 163.912 1028.38 174.941 1027.97 197.401V335.429H972.841V208.425C972.841 146.763 1003.88 116.135 1065.54 116.135C1127.21 116.135 1157.43 146.763 1157.02 208.425V335.43H1129.25Z" fill="white"/>
<path d="M1241.55 158.195H1235.83V277.848C1235.83 286.832 1241.14 291.733 1251.76 291.733H1268.5V332.977C1250.94 334.612 1231.74 334.612 1211.33 332.569C1190.91 330.528 1181.1 317.87 1181.51 293.775V57.7373H1209.69C1223.99 57.7373 1235.83 70.8053 1235.83 85.0993V119.401H1268.5V131.244C1268.5 146.762 1256.66 158.195 1241.55 158.195Z" fill="white"/>
</svg>
